HIERARCHY
ROOT SimulationBone
{
	OFFSET 0.000000 0.000000 0.000000
	CHANNELS 6 Xposition Yposition Zposition Zrotation Yrotation Xrotation 
	JOINT Hips
	{
		OFFSET 0.000000 0.000000 0.000000
		CHANNELS 6 Xposition Yposition Zposition Zrotation Yrotation Xrotation 
		JOINT RightUpLeg
		{
			OFFSET 0.103459 1.857839 10.548500
			CHANNELS 3 Zrotation Yrotation Xrotation
			JOINT RightLeg
			{
				OFFSET 43.500004 -0.000053 -0.000011
				CHANNELS 3 Zrotation Yrotation Xrotation
				JOINT RightFoot
				{
					OFFSET 42.372192 0.000015 -0.000008
					CHANNELS 3 Zrotation Yrotation Xrotation
					JOINT RightToe
					{
						OFFSET 17.300007 0.000002 0.000013
						CHANNELS 3 Zrotation Yrotation Xrotation
						End Site
						{
							OFFSET 0.000000 0.000000 0.000000
						}
					}
				}
			}
		}
		JOINT LeftUpLeg
		{
			OFFSET 0.103460 1.857826 -10.548500
			CHANNELS 3 Zrotation Yrotation Xrotation
			JOINT LeftLeg
			{
				OFFSET 43.500046 -0.000019 0.000011
				CHANNELS 3 Zrotation Yrotation Xrotation
				JOINT LeftFoot
				{
					OFFSET 42.372261 0.000004 0.000012
					CHANNELS 3 Zrotation Yrotation Xrotation
					JOINT LeftToe
					{
						OFFSET 17.299995 -0.000004 0.000006
						CHANNELS 3 Zrotation Yrotation Xrotation
						End Site
						{
							OFFSET 0.000000 0.000000 0.000000
						}
					}
				}
			}
		}
		JOINT Spine
		{
			OFFSET 6.901963 -2.603745 -0.000005
			CHANNELS 3 Zrotation Yrotation Xrotation
			JOINT Spine1
			{
				OFFSET 12.588102 0.000012 0.000012
				CHANNELS 3 Zrotation Yrotation Xrotation
				JOINT Spine2
				{
					OFFSET 12.343202 0.000010 -0.000009
					CHANNELS 3 Zrotation Yrotation Xrotation
					JOINT Neck
					{
						OFFSET 25.832901 -0.000008 0.000006
						CHANNELS 3 Zrotation Yrotation Xrotation
						JOINT Head
						{
							OFFSET 11.766603 0.000007 -0.000001
							CHANNELS 3 Zrotation Yrotation Xrotation
							End Site
							{
								OFFSET 0.000000 0.000000 0.000000
							}
						}
					}
					JOINT RightShoulder
					{
						OFFSET 19.745903 -1.480391 6.000108
						CHANNELS 3 Zrotation Yrotation Xrotation
						JOINT RightArm
						{
							OFFSET 11.284125 -0.000031 -0.000021
							CHANNELS 3 Zrotation Yrotation Xrotation
							JOINT RightForeArm
							{
								OFFSET 33.000046 0.000024 0.000034
								CHANNELS 3 Zrotation Yrotation Xrotation
								JOINT RightHand
								{
									OFFSET 25.200014 0.000020 0.000007
									CHANNELS 3 Zrotation Yrotation Xrotation
									End Site
									{
										OFFSET 0.000000 0.000000 0.000000
									}
								}
							}
						}
					}
					JOINT LeftShoulder
					{
						OFFSET 19.746098 -1.480371 -6.000075
						CHANNELS 3 Zrotation Yrotation Xrotation
						JOINT LeftArm
						{
							OFFSET 11.284128 -0.000021 -0.000009
							CHANNELS 3 Zrotation Yrotation Xrotation
							JOINT LeftForeArm
							{
								OFFSET 33.000095 0.000034 0.000006
								CHANNELS 3 Zrotation Yrotation Xrotation
								JOINT LeftHand
								{
									OFFSET 25.199781 0.000147 0.000427
									CHANNELS 3 Zrotation Yrotation Xrotation
									End Site
									{
										OFFSET 0.000000 0.000000 0.000000
									}
								}
							}
						}
					}
				}
			}
		}
	}
}
MOTION
Frames: 10
Frame Time: 0.033333
194.640509 0.000000 -322.509922 180.000000 73.701715 180.000000 -1.537371 89.718224 -0.170400 87.902129 0.800086 -179.499665 160.148798 -11.847794 176.425548 -32.327681 2.716969 -1.708900 80.295718 -1.692654 -11.750289 21.454562 0.003123 0.000019 171.815376 3.344896 -159.525120 -26.905257 -2.790939 6.808277 88.904720 -3.315545 7.421994 21.454551 -0.003091 0.000001 6.449603 0.314734 1.057404 2.891999 0.603495 2.122229 2.574103 0.616173 2.118551 11.442398 -5.218967 9.650110 -11.706682 -6.739770 11.554152 -164.623514 -75.299742 -17.145998 15.061209 65.746752 28.912843 -25.687723 -10.946219 0.918629 8.422492 -0.080345 5.662614 -165.685267 81.839108 16.053497 -35.447773 -62.071632 -28.875776 -39.670767 13.160701 -1.329003 6.724320 5.563478 -10.880849 
194.735237 0.000000 -323.026172 180.000000 70.502211 180.000000 -1.862631 89.554092 -0.111636 87.893775 0.751017 179.775240 157.410397 -11.586391 175.469582 -35.843661 3.015014 -1.881975 78.986418 -1.428258 -10.656526 21.454558 0.003110 0.000016 172.201992 3.149901 -158.075152 -27.160978 -2.920158 7.469060 89.455063 -3.731945 7.737572 21.454553 -0.003090 0.000000 6.481083 0.253720 1.323773 2.954830 0.474246 2.653494 2.637096 0.490120 2.650589 11.370962 -4.641531 9.690803 -11.985163 -6.833356 11.708450 -165.008423 -75.141609 -16.752658 17.618878 66.400551 33.962972 -24.893285 -10.354151 0.867824 8.770087 0.861079 5.132015 -163.389695 81.862720 18.379286 -38.840953 -61.737807 -29.488577 -45.100846 14.484193 -1.565439 4.534712 7.377571 -14.097049 
194.720522 0.000000 -323.517192 180.000000 67.341764 180.000000 -2.086608 89.284218 0.056517 87.851144 1.019286 179.686511 154.573834 -11.392712 173.995108 -39.333304 2.911051 -3.194132 78.980100 -0.387388 -10.256315 21.454557 0.003105 0.000017 172.647306 2.563796 -155.923452 -27.470746 -3.377536 8.139081 90.074697 -4.114666 8.308328 21.454555 -0.003096 0.000001 6.478019 0.242498 1.521026 2.949191 0.446927 3.047641 2.631576 0.465178 3.044887 11.332682 -4.020167 9.797870 -12.453481 -6.939064 11.959284 -163.994071 -75.076893 -17.792054 18.780918 66.419963 35.986125 -23.884116 -9.268367 0.782125 8.735088 0.389181 8.536948 -161.028431 81.884099 20.771235 -40.088668 -61.048033 -29.476539 -50.674198 15.335761 -1.794540 2.626315 7.927807 -16.273856 
194.599002 0.000000 -323.986013 180.000000 64.229306 180.000000 -2.274053 89.107140 0.331814 87.791228 1.221983 179.889800 152.254042 -10.639698 171.172067 -41.965758 2.809518 -5.692542 80.110783 1.805644 -8.997455 21.454555 0.003103 0.000016 173.272282 1.926803 -154.215959 -27.444629 -3.576659 9.182041 90.455883 -4.739170 8.944882 21.454551 -0.003090 -0.000001 6.456550 0.242372 1.644484 2.906660 0.444217 3.294462 2.589118 0.463961 3.291722 11.429956 -3.975169 10.131641 -13.167657 -6.811297 12.334000 -163.498295 -74.913522 -18.301374 19.601700 65.909181 37.997336 -23.299930 -8.886049 0.748807 9.521892 0.425035 8.299907 -161.276448 82.393002 20.514195 -39.818490 -60.327994 -28.311865 -55.797946 15.319447 -1.967565 1.580719 7.776376 -17.170641 
194.373316 0.000000 -324.435660 180.000000 61.172623 180.000000 -2.396947 88.895393 0.638683 87.767265 1.428296 -179.809730 150.863702 -9.760819 166.916231 -43.078536 3.058114 -7.625392 82.033809 3.509590 -8.100117 21.454562 0.003108 0.000018 173.924128 1.287193 -153.011155 -27.550727 -3.555553 10.513393 90.946380 -5.560624 9.681689 21.454555 -0.003111 -0.000003 6.441523 0.233738 1.753956 2.876779 0.424694 3.513067 2.559315 0.445752 3.510447 11.320782 -3.726919 10.575684 -13.805106 -6.892971 12.897404 -162.763217 -74.903713 -19.054657 19.890711 65.170489 39.229058 -23.267454 -9.005006 0.756134 9.553135 1.264719 7.872794 -161.414391 82.790751 20.370095 -38.654943 -59.438041 -27.014006 -59.803798 14.808301 -2.078095 0.909829 7.385894 -16.025652 
194.046103 0.000000 -324.869164 180.000000 58.178292 180.000000 -2.479144 88.728127 0.973757 87.686825 1.576926 -179.548400 150.428742 -8.453197 162.381792 -42.509465 3.253767 -9.168483 83.312373 4.791312 -7.529146 21.454558 0.003109 0.000017 174.580714 0.671410 -151.890348 -27.535822 -3.522893 11.808156 91.340612 -6.355532 10.467381 21.454553 -0.003093 -0.000001 6.421414 0.206742 1.831719 2.835941 0.369474 3.667886 2.518520 0.391471 3.665589 10.926202 -3.166107 11.169343 -14.212034 -7.382176 13.757109 -160.450487 -74.797040 -21.425704 19.570579 64.420172 39.518570 -23.836522 -9.330231 0.785466 9.340628 0.901031 7.643813 -159.860031 82.917226 21.940717 -37.308583 -58.377880 -26.511584 -62.286954 14.508970 -2.151218 0.867330 6.902736 -13.797950 
193.620002 0.000000 -325.289552 180.000000 55.251670 180.000000 -2.470373 88.580109 1.330897 87.596222 1.806139 -179.354248 150.783775 -6.966994 158.513009 -40.674931 2.960064 -10.220653 83.756492 6.197030 -4.424468 21.454560 0.003110 0.000018 175.334740 -0.088803 -150.325101 -27.314732 -3.785498 12.764883 91.535531 -6.898182 11.366271 21.454550 -0.003087 0.000003 6.358454 0.208231 1.886562 2.710281 0.373217 3.777406 2.392924 0.395866 3.775078 11.066066 -3.124689 11.793700 -14.987552 -7.609673 14.566951 -158.948133 -74.653203 -22.967390 19.587200 63.657759 39.533678 -25.060119 -9.840458 0.837014 9.780600 0.625696 6.553599 -158.330246 82.923462 23.487690 -35.756566 -57.327574 -26.442512 -62.914771 14.159268 -2.151351 1.266091 6.421098 -11.578627 
193.097652 0.000000 -325.699853 180.000000 52.396936 180.000000 -2.417571 88.525963 1.621287 87.441455 2.008428 -179.294700 151.855828 -5.626794 154.488101 -37.793243 2.840617 -11.557863 84.910876 7.973822 -0.081128 21.454557 0.003106 0.000017 176.177462 -0.806106 -149.108931 -26.796850 -3.917165 13.699686 91.314664 -7.380356 12.416399 21.454553 -0.003105 0.000000 6.256672 0.198332 1.925692 2.506534 0.355965 3.855139 2.189187 0.379093 3.852928 11.380308 -3.065331 12.314046 -15.675218 -7.661955 15.215600 -157.347000 -74.638566 -24.608489 19.344294 63.099562 39.006903 -26.455558 -10.267592 0.887082 9.765940 -0.152698 4.566877 -158.782364 82.840475 23.031715 -33.608899 -56.329827 -27.602119 -62.084022 14.318083 -2.130441 1.797527 6.014296 -9.802767 
192.481691 0.000000 -326.103094 180.000000 49.617168 180.000000 -2.377676 88.547821 1.707606 87.103947 2.083527 -179.460731 153.299648 -3.926999 152.241461 -34.285289 3.601108 -11.654881 86.956149 8.357864 2.131553 21.454557 0.003109 0.000017 176.763875 -1.139406 -148.297395 -26.481779 -3.884557 14.561567 90.759813 -7.761065 13.638075 21.454551 -0.003102 -0.000003 6.119241 0.155795 1.948598 2.230350 0.275120 3.899764 1.913052 0.298505 3.898039 11.467736 -2.816785 12.933776 -16.063910 -7.693774 15.943620 -156.365911 -74.394461 -25.618645 18.823513 62.372789 37.671826 -28.124272 -10.669830 0.941795 9.740488 -0.287626 4.678736 -160.975824 82.814056 20.813463 -31.930038 -55.476678 -29.564692 -59.035709 15.048580 -2.066023 2.557745 6.419299 -9.260278 
191.774758 0.000000 -326.502305 180.000000 46.914443 180.000000 -2.308987 88.565437 1.675799 86.873640 2.191695 -179.733450 154.251940 -2.587500 156.291380 -32.843972 2.514917 -12.407651 88.361666 8.852914 2.233338 21.454560 0.003108 0.000017 177.321259 -1.266802 -147.547495 -26.626056 -3.899659 15.178589 89.992824 -7.906554 15.102441 21.454555 -0.003107 -0.000001 6.027356 0.138247 1.957571 2.046070 0.242991 3.917202 1.728764 0.266490 3.915672 11.173775 -2.696702 13.512291 -16.185402 -7.852513 16.613373 -156.479607 -73.924025 -25.511419 17.834794 61.646398 36.194863 -29.583848 -10.901481 0.983528 9.581577 -1.468064 5.060605 -161.432464 82.941753 20.350086 -31.371544 -55.224214 -30.916496 -53.560609 15.286008 -1.887599 3.061926 7.205815 -7.805921 
